<?xml version="1.0" encoding="UTF-8"?>
<svg width="752pt" height="752pt" version="1.1" viewBox="0 0 752 752" xmlns="http://www.w3.org/2000/svg">
 <path d="m490.06 523.73h-228.13c-12.273 0-22.227-10.176-22.227-22.73v-39.781c0-1.6719 0.19922-3.293 0.53516-4.8594 3.4258-49.27 41.27-90.547 87.492-106.89-15.504-12.488-25.445-31.602-25.445-53.059 0-37.625 30.504-68.125 68.129-68.125 37.621 0 68.125 30.504 68.125 68.125 0 21.293-9.7734 40.289-25.074 52.781 49.449 16.105 94.227 57.469 98.215 106.92 0.37109 1.6445 0.60938 3.3398 0.60938 5.1016v39.781c0 12.551-9.9492 22.73-22.23 22.73zm-119.64-261.62c-18.941 0-34.301 15.359-34.301 34.301s15.359 34.301 34.301 34.301c18.941 0 34.297-15.359 34.297-34.301 0.003906-18.941-15.355-34.301-34.297-34.301zm107.8 198.92c0-0.3125-0.13672-0.58203-0.17969-0.88672-1.9453-46.703-57.895-84.094-106.33-84.094-48.395 0-95.852 37.332-97.738 83.984-0.058594 0.33594-0.19922 0.64453-0.19922 0.99609v22.062c0 3.5273 2.8594 6.3867 6.3867 6.3867h16.34v-30.797c0-7.8203 6.3359-14.156 14.156-14.156h5.6836c7.8203 0 14.156 6.3359 14.156 14.156v30.797h91.031v-30.797c0-7.8203 6.3359-14.156 14.156-14.156h5.6836c7.8203 0 14.156 6.3359 14.156 14.156v30.797h16.316c3.5273 0 6.3867-2.8594 6.3867-6.3867l-0.003906-22.062z" fill-rule="evenodd"/>
</svg>
